<?xml version="1.0" encoding="utf-8"?>
<!-- Generator: Adobe Illustrator 16.0.0, SVG Export Plug-In . SVG Version: 6.00 Build 0)  -->
<!DOCTYPE svg PUBLIC "-//W3C//DTD SVG 1.1//EN" "http://www.w3.org/Graphics/SVG/1.1/DTD/svg11.dtd">
<svg version="1.1" id="Layer_1" xmlns="http://www.w3.org/2000/svg" xmlns:xlink="http://www.w3.org/1999/xlink" x="0px" y="0px"
	 width="459px" height="170px" viewBox="0 0 459 170" enable-background="new 0 0 459 170" xml:space="preserve">
<rect x="-40.5" fill="#FFFFFF" stroke="#FFFFFF" stroke-miterlimit="10" width="540" height="170"/>
<g>
	<text transform="matrix(1 0 0 1 203.8269 96.4102)" font-family="'NanumSquareB'" font-size="40">첫 화면</text>
	<path d="M191.686,61.43h-51.413c-2.358,0-4.3,1.942-4.3,4.3v38.541c0,2.371,1.94,4.3,4.3,4.3h51.398c2.372,0,4.301-1.943,4.301-4.3
		V65.729C195.986,63.372,194.044,61.43,191.686,61.43L191.686,61.43z M147.761,104.297c0,0.589-0.482,1.072-1.072,1.072h-6.43
		c-0.591,0-1.071-0.483-1.071-1.072v-6.43c0-0.591,0.48-1.072,1.071-1.072h6.43c0.59,0,1.072,0.481,1.072,1.072V104.297z
		 M147.761,93.58c0,0.588-0.482,1.07-1.072,1.07h-6.43c-0.591,0-1.071-0.482-1.071-1.07v-6.432c0-0.589,0.48-1.07,1.071-1.07h6.43
		c0.59,0,1.072,0.481,1.072,1.07V93.58z M147.761,82.863c0,0.589-0.482,1.071-1.072,1.071h-6.43c-0.591,0-1.071-0.481-1.071-1.071
		v-6.43c0-0.59,0.48-1.072,1.071-1.072h6.43c0.59,0,1.072,0.482,1.072,1.072V82.863z M147.761,72.146
		c0,0.589-0.482,1.071-1.072,1.071h-6.43c-0.591,0-1.071-0.482-1.071-1.071v-6.43c0-0.589,0.48-1.072,1.071-1.072h6.43
		c0.59,0,1.072,0.482,1.072,1.072V72.146z M178.839,86.613h-25.72c-0.885,0-1.606-0.724-1.606-1.607
		c0-0.885,0.723-1.607,1.606-1.607h25.72c0.886,0,1.607,0.723,1.607,1.607C180.447,85.891,179.724,86.613,178.839,86.613z
		 M192.771,104.297c0,0.589-0.481,1.072-1.071,1.072h-6.431c-0.589,0-1.071-0.483-1.071-1.072v-6.43
		c0-0.591,0.482-1.072,1.071-1.072h6.431c0.59,0,1.071,0.481,1.071,1.072V104.297z M192.771,93.58c0,0.588-0.481,1.07-1.071,1.07
		h-6.431c-0.589,0-1.071-0.482-1.071-1.07v-6.432c0-0.589,0.482-1.07,1.071-1.07h6.431c0.59,0,1.071,0.481,1.071,1.07V93.58z
		 M192.771,82.863c0,0.589-0.481,1.071-1.071,1.071h-6.431c-0.589,0-1.071-0.481-1.071-1.071v-6.43c0-0.59,0.482-1.072,1.071-1.072
		h6.431c0.59,0,1.071,0.482,1.071,1.072V82.863z M192.771,72.146c0,0.589-0.481,1.071-1.071,1.071h-6.431
		c-0.589,0-1.071-0.482-1.071-1.071v-6.43c0-0.589,0.482-1.072,1.071-1.072h6.431c0.59,0,1.071,0.482,1.071,1.072V72.146z"/>
</g>
</svg>
