<?xml version="1.0" encoding="utf-8"?>
<!-- Generator: Adobe Illustrator 16.0.0, SVG Export Plug-In . SVG Version: 6.00 Build 0)  -->
<!DOCTYPE svg PUBLIC "-//W3C//DTD SVG 1.1//EN" "http://www.w3.org/Graphics/SVG/1.1/DTD/svg11.dtd">
<svg version="1.1" id="Layer_1" xmlns="http://www.w3.org/2000/svg" xmlns:xlink="http://www.w3.org/1999/xlink" x="0px" y="0px"
	 width="55px" height="55px" viewBox="0 0 55 55" enable-background="new 0 0 55 55" xml:space="preserve">
<g>
	
		<image overflow="visible" opacity="0.5" enable-background="new    " width="69" height="69" xlink:href="2F1AB1DA.png"  transform="matrix(1 0 0 1 -7 -7)">
	</image>
	<g>
		<path fill="#FFFFFF" d="M22.5,47.5c-13.812,0-25-11.189-25-25c0-13.81,11.188-25,25-25c13.811,0,25,11.19,25,25
			C47.5,36.311,36.311,47.5,22.5,47.5z M11.019,24.213L24.68,37.872c0.945,0.948,2.479,0.948,3.416,0l1.715-1.711
			c0.945-0.949,0.945-2.479,0-3.42L19.567,22.5l10.244-10.241c0.944-0.947,0.944-2.48,0-3.417l-1.715-1.716
			c-0.947-0.945-2.479-0.945-3.418,0L11.019,20.787C10.069,21.734,10.069,23.266,11.019,24.213z"/>
	</g>
</g>
</svg>
