<?xml version="1.0" encoding="utf-8"?>
<!-- Generator: Adobe Illustrator 16.0.0, SVG Export Plug-In . SVG Version: 6.00 Build 0)  -->
<!DOCTYPE svg PUBLIC "-//W3C//DTD SVG 1.1//EN" "http://www.w3.org/Graphics/SVG/1.1/DTD/svg11.dtd">
<svg version="1.1" id="Layer_1" xmlns="http://www.w3.org/2000/svg" xmlns:xlink="http://www.w3.org/1999/xlink" x="0px" y="0px"
	 width="403.5px" height="300px" viewBox="-103.5 0 403.5 300" enable-background="new -103.5 0 403.5 300" xml:space="preserve">
<g>
	<path fill="#FFFFFF" d="M264.5,68.625H88.188c-11.236,0-20.344,9.108-20.344,20.344v122.063c0,11.235,9.108,20.344,20.344,20.344
		H264.5c11.235,0,20.344-9.108,20.344-20.344V88.969C284.844,77.733,275.735,68.625,264.5,68.625z M264.5,88.969v17.294
		c-9.503,7.739-24.653,19.772-57.042,45.133c-7.138,5.614-21.276,19.103-31.114,18.946c-9.836,0.158-23.98-13.334-31.115-18.946
		c-32.383-25.357-47.537-37.394-57.042-45.133V88.969H264.5z M88.188,211.031v-78.663c9.712,7.735,23.484,18.59,44.476,35.027
		c9.264,7.292,25.486,23.39,43.681,23.292c18.104,0.098,34.122-15.767,43.677-23.289c20.991-16.437,34.768-27.294,44.479-35.03
		v78.663H88.188z"/>
	<g>
		<g>
			<path fill="#FFFFFF" d="M40.424,107.5H-76.424c-4.971,0-9-4.029-9-9s4.029-9,9-9H40.424c4.971,0,9,4.029,9,9
				S45.395,107.5,40.424,107.5z"/>
		</g>
		<g>
			<path fill="#FFFFFF" d="M40.424,156.836h-90.017c-4.971,0-9-4.029-9-9s4.029-9,9-9h90.017c4.971,0,9,4.029,9,9
				S45.395,156.836,40.424,156.836z"/>
		</g>
		<g>
			<path fill="#FFFFFF" d="M40.424,210.5h-70.109c-4.971,0-9-4.029-9-9s4.029-9,9-9h70.109c4.971,0,9,4.029,9,9
				S45.395,210.5,40.424,210.5z"/>
		</g>
	</g>
</g>
</svg>
