<?xml version="1.0" encoding="utf-8"?>
<!-- Generator: Adobe Illustrator 16.0.0, SVG Export Plug-In . SVG Version: 6.00 Build 0)  -->
<!DOCTYPE svg PUBLIC "-//W3C//DTD SVG 1.1//EN" "http://www.w3.org/Graphics/SVG/1.1/DTD/svg11.dtd">
<svg version="1.1" id="Layer_1" xmlns="http://www.w3.org/2000/svg" xmlns:xlink="http://www.w3.org/1999/xlink" x="0px" y="0px"
	 width="300px" height="300px" viewBox="0 0 300 300" enable-background="new 0 0 300 300" xml:space="preserve">
<path fill="#FFFFFF" d="M285.938,37.5h-4.688v11.719c0,3.867-3.164,7.031-7.031,7.031h-23.438c-3.867,0-7.031-3.164-7.031-7.031
	V37.5H56.25v11.719c0,3.867-3.164,7.031-7.031,7.031H25.781c-3.867,0-7.031-3.164-7.031-7.031V37.5h-4.688
	C6.27,37.5,0,43.77,0,51.563v196.875C0,256.23,6.27,262.5,14.063,262.5h4.688v-11.719c0-3.867,3.164-7.031,7.031-7.031h23.438
	c3.867,0,7.031,3.164,7.031,7.031V262.5h187.5v-11.719c0-3.867,3.164-7.031,7.031-7.031h23.438c3.867,0,7.031,3.164,7.031,7.031
	V262.5h4.688c7.793,0,14.063-6.27,14.063-14.063V51.563C300,43.77,293.73,37.5,285.938,37.5z M56.25,217.969
	c0,3.867-3.164,7.031-7.031,7.031H25.781c-3.867,0-7.031-3.164-7.031-7.031v-23.438c0-3.867,3.164-7.031,7.031-7.031h23.438
	c3.867,0,7.031,3.164,7.031,7.031V217.969z M56.25,161.719c0,3.867-3.164,7.031-7.031,7.031H25.781
	c-3.867,0-7.031-3.164-7.031-7.031v-23.438c0-3.867,3.164-7.031,7.031-7.031h23.438c3.867,0,7.031,3.164,7.031,7.031V161.719z
	 M56.25,105.469c0,3.867-3.164,7.031-7.031,7.031H25.781c-3.867,0-7.031-3.164-7.031-7.031V82.031c0-3.867,3.164-7.031,7.031-7.031
	h23.438c3.867,0,7.031,3.164,7.031,7.031V105.469z M215.625,227.344c0,3.867-3.164,7.031-7.031,7.031H91.406
	c-3.867,0-7.031-3.164-7.031-7.031v-56.25c0-3.867,3.164-7.031,7.031-7.031h117.188c3.867,0,7.031,3.164,7.031,7.031V227.344z
	 M215.625,128.906c0,3.867-3.164,7.031-7.031,7.031H91.406c-3.867,0-7.031-3.164-7.031-7.031v-56.25
	c0-3.867,3.164-7.031,7.031-7.031h117.188c3.867,0,7.031,3.164,7.031,7.031V128.906z M281.25,217.969
	c0,3.867-3.164,7.031-7.031,7.031h-23.438c-3.867,0-7.031-3.164-7.031-7.031v-23.438c0-3.867,3.164-7.031,7.031-7.031h23.438
	c3.867,0,7.031,3.164,7.031,7.031V217.969z M281.25,161.719c0,3.867-3.164,7.031-7.031,7.031h-23.438
	c-3.867,0-7.031-3.164-7.031-7.031v-23.438c0-3.867,3.164-7.031,7.031-7.031h23.438c3.867,0,7.031,3.164,7.031,7.031V161.719z
	 M281.25,105.469c0,3.867-3.164,7.031-7.031,7.031h-23.438c-3.867,0-7.031-3.164-7.031-7.031V82.031
	c0-3.867,3.164-7.031,7.031-7.031h23.438c3.867,0,7.031,3.164,7.031,7.031V105.469z"/>
</svg>
