<svg xmlns="http://www.w3.org/2000/svg" viewBox="0 0 584 65.8"><defs><style>.cls-1{fill:#fff;}</style></defs><title>자산 5</title><g id="레이어_2" data-name="레이어 2"><g id="레이어_1-2" data-name="레이어 1"><path class="cls-1" d="M0,46.4H16V41.5a19.1,19.1,0,0,1-5.1-1.6,12.9,12.9,0,0,1-3.7-2.6,11.1,11.1,0,0,1-2.1-3.2,9.4,9.4,0,0,1-.8-3.6V28a9.9,9.9,0,0,1,1-4.1,11.7,11.7,0,0,1,3-3.7,18,18,0,0,1,5-2.6,25,25,0,0,1,7.1-.9,24.3,24.3,0,0,1,7,.9,18,18,0,0,1,5,2.6,9.5,9.5,0,0,1,3,3.7,8.6,8.6,0,0,1,1,4.1v2.5a9.2,9.2,0,0,1-.7,3.6,9.7,9.7,0,0,1-2.2,3.2,13.8,13.8,0,0,1-3.6,2.6,19.1,19.1,0,0,1-5.1,1.6v4.6l8.6-.3c2.5-.2,4.7-.3,6.8-.6l.7,7.4a57.4,57.4,0,0,1-6.7.6l-8.7.4-11.2.2H0ZM16,7.1V0h8.8V7.1H38.7v7.5H1.3V7.1Zm4.4,16.5c-2.7,0-4.7.6-5.9,1.7a4.6,4.6,0,0,0-1.9,3.5v.9a4.6,4.6,0,0,0,1.9,3.5c1.2,1.2,3.2,1.7,5.9,1.7s4.6-.5,5.9-1.7a4.8,4.8,0,0,0,1.8-3.5v-.9a4.8,4.8,0,0,0-1.8-3.5C25,24.2,23.1,23.6,20.4,23.6Zm31.8,1.9h9v7.7h-9v32H43.5V.1h8.7Z"/><path class="cls-1" d="M93.2,35.8H62.6V4H93.2ZM84.4,11.4h-13v17h13ZM81.5,57h33.6v7.5H72.6V42.7h8.9ZM105.3,9.3V.1H114V46.5h-8.7V30.7H96.5V23.2h8.8V16.8H96.5V9.3Z"/><path class="cls-1" d="M179.8,27.8v6.8H120.2V27.8Zm-8.3,10.6V55.2H136.9v4h36.5v6.6h-45V48.9H163V45H128V38.4ZM150,24.7a46,46,0,0,1-8.7-.8,21.9,21.9,0,0,1-6.7-2.3,12,12,0,0,1-4.3-3.6,7.4,7.4,0,0,1-1.6-4.7V11.6a7.4,7.4,0,0,1,1.6-4.7,12,12,0,0,1,4.3-3.6A24.9,24.9,0,0,1,141.3,1,46,46,0,0,1,150,.2a47.9,47.9,0,0,1,8.8.8,25.4,25.4,0,0,1,6.6,2.3,12,12,0,0,1,4.3,3.6,7.4,7.4,0,0,1,1.6,4.7v1.7a7.4,7.4,0,0,1-1.6,4.7,12,12,0,0,1-4.3,3.6,22.2,22.2,0,0,1-6.6,2.3A47.9,47.9,0,0,1,150,24.7Zm0-17.5a32.5,32.5,0,0,0-5.9.5,19.7,19.7,0,0,0-3.8,1.1,6.6,6.6,0,0,0-2.2,1.6,2.7,2.7,0,0,0-.6,1.6v1a2.9,2.9,0,0,0,.6,1.6,8.3,8.3,0,0,0,2.2,1.5,14.2,14.2,0,0,0,3.8,1.2,33.4,33.4,0,0,0,5.9.4,34.2,34.2,0,0,0,5.9-.4,13.1,13.1,0,0,0,3.8-1.2,8.3,8.3,0,0,0,2.2-1.5,2.9,2.9,0,0,0,.6-1.6V12a2.7,2.7,0,0,0-.6-1.6,6.6,6.6,0,0,0-2.2-1.6,17.7,17.7,0,0,0-3.8-1.1A33.3,33.3,0,0,0,150,7.2Z"/><path class="cls-1" d="M198,5.2h30.4v7.5H206.8V23.2h19.4v7.5H206.8v11h4.8l10.8-.2c3.8-.2,7.4-.5,10.7-1L234,48c-1.6.2-3.4.5-5.4.6l-6.1.4-6.5.2H198Zm31.7,17.7h10.7V.1h8.9V65.2h-8.9V30.5H229.7Z"/><path class="cls-1" d="M257.2,9.1H271V.5h8.9V9.1H293v7.6H279.9v5.4a22.2,22.2,0,0,0,.3,3.7,15.8,15.8,0,0,0,.9,3.1,14.6,14.6,0,0,0,1.6,3,26.4,26.4,0,0,0,2.3,2.9l2.2,2.3,2.5,2.5,2.7,2.6,2.7,2.5-5.7,5.8L285,46.2q-2.2-2.1-4.2-4.2l-3.5-3.7a9.9,9.9,0,0,1-1.7-2.5h-.2a13.8,13.8,0,0,1-2,2.8,38,38,0,0,1-3.3,3.7l-4,4.1a61.4,61.4,0,0,1-5.1,4.8l-5.8-5.9a144.3,144.3,0,0,0,10.4-10.2,33.3,33.3,0,0,0,2.6-3.2,14.6,14.6,0,0,0,1.6-3,8.5,8.5,0,0,0,.9-3.1,20.5,20.5,0,0,0,.3-3.7V16.7H257.2Zm52.2,56.1h-8.9V.1h8.9Z"/><path class="cls-1" d="M326.8,10.6V2h8.6v8.6h11v7.3h-32V10.6Zm4.4,38.5a17.7,17.7,0,0,1-6.3-1,14.5,14.5,0,0,1-4.5-2.9,14.2,14.2,0,0,1-2.8-4.1,12.2,12.2,0,0,1-.9-4.6V33.1a12.2,12.2,0,0,1,.9-4.6,13,13,0,0,1,7.3-7,17.7,17.7,0,0,1,6.3-1.1,17.1,17.1,0,0,1,6.2,1.1,12.9,12.9,0,0,1,4.5,2.9,11.5,11.5,0,0,1,2.8,4.1,12.3,12.3,0,0,1,1,4.6v3.4a12.3,12.3,0,0,1-1,4.6,12.5,12.5,0,0,1-2.8,4.1,14.5,14.5,0,0,1-4.5,2.9A17.2,17.2,0,0,1,331.2,49.1Zm0-21.6a7,7,0,0,0-3,.6,5.7,5.7,0,0,0-2.1,1.5,5.9,5.9,0,0,0-1.3,1.9,5.6,5.6,0,0,0-.4,2.1V36a5.1,5.1,0,0,0,.4,2,5.3,5.3,0,0,0,1.3,2,5.7,5.7,0,0,0,2.1,1.5,7,7,0,0,0,3,.6,6.5,6.5,0,0,0,2.9-.6,7.1,7.1,0,0,0,2.2-1.5,5.1,5.1,0,0,0,1.2-2,5.3,5.3,0,0,0,.5-2V33.6a5.8,5.8,0,0,0-.5-2.1,5.5,5.5,0,0,0-1.2-1.9,7.1,7.1,0,0,0-2.2-1.5A6.5,6.5,0,0,0,331.2,27.5ZM358,23.7h5.6V.1H372V65.2h-8.4V31.3H358V62.1h-8.4V1.5H358Z"/><path class="cls-1" d="M423.2,38.9V49.6h25.4v7.5H389V49.6h25.4V38.9H397V4.6h8.9V15.1h25.9V4.6h8.8V38.9Zm8.6-7.4v-9H405.9v9Z"/><path class="cls-1" d="M460.7,5.3h8.8V21a35.3,35.3,0,0,0,.2,3.6,12.3,12.3,0,0,0,.8,2.9,13.4,13.4,0,0,0,1.3,2.7,14.3,14.3,0,0,0,1.9,2.6,63.7,63.7,0,0,0,4.3,5l4.8,5L477,48.2q-4.7-4.7-7.8-8.4c-2-2.3-3.3-4-3.6-4.9h-.1a9.3,9.3,0,0,1-1.3,2.2l-2.3,3L460.2,42,458,44.4l-2.3,2.5-2.5,2.5-5.9-5.8c1.5-1.5,3.1-3.1,4.7-4.9l4.5-5.2a21.7,21.7,0,0,0,2-2.9,11.7,11.7,0,0,0,1.3-2.8,10.1,10.1,0,0,0,.7-3.1,21.2,21.2,0,0,0,.2-3.7ZM484.3,28h-8.7V20.3h8.7V1.5h8.4V62.1h-8.4ZM506,65.2h-8.4V.1H506Z"/><path class="cls-1" d="M523.4,49.6V34.9a14.8,14.8,0,0,1-4.8-5.2,13,13,0,0,1-1.7-6.8V19.7a13,13,0,0,1,1.7-6.8,16.2,16.2,0,0,1,4.6-5.2,24.5,24.5,0,0,1,7.1-3.3,33.6,33.6,0,0,1,17.8,0,23.9,23.9,0,0,1,7,3.3,16.5,16.5,0,0,1,4.7,5.2,13,13,0,0,1,1.7,6.8v3.2a13,13,0,0,1-1.7,6.8,14.8,14.8,0,0,1-4.8,5.2V49.6h14v7.5H509.4V49.6Zm15.8-39a21.8,21.8,0,0,0-5.2.7,14.6,14.6,0,0,0-4.4,1.9,11.7,11.7,0,0,0-2.9,3,6.9,6.9,0,0,0-1.1,4v2.2a6.6,6.6,0,0,0,1.1,3.9,9.2,9.2,0,0,0,2.9,3,14.8,14.8,0,0,0,4.4,2,22.8,22.8,0,0,0,10.4,0,14.8,14.8,0,0,0,4.4-2,9.2,9.2,0,0,0,2.9-3,6.7,6.7,0,0,0,1.2-3.9V20.2a7,7,0,0,0-1.2-4,11.7,11.7,0,0,0-2.9-3,14.6,14.6,0,0,0-4.4-1.9A21.8,21.8,0,0,0,539.2,10.6Zm0,28.7a33.5,33.5,0,0,1-7.1-.7v11h14.2v-11A33.5,33.5,0,0,1,539.2,39.3Z"/><path class="cls-1" d="M575.1,51.1H584v9.1h-8.9Z"/></g></g></svg>