<?xml version="1.0" encoding="utf-8"?>
<!-- Generator: Adobe Illustrator 16.0.0, SVG Export Plug-In . SVG Version: 6.00 Build 0)  -->
<!DOCTYPE svg PUBLIC "-//W3C//DTD SVG 1.1//EN" "http://www.w3.org/Graphics/SVG/1.1/DTD/svg11.dtd">
<svg version="1.1" id="Layer_1" xmlns="http://www.w3.org/2000/svg" xmlns:xlink="http://www.w3.org/1999/xlink" x="0px" y="0px"
	 width="300px" height="300px" viewBox="0 0 300 300" enable-background="new 0 0 300 300" xml:space="preserve">
<path fill="#FFFFFF" d="M258.27,75.004c-13.139-0.251-23.895,10.754-23.895,23.896V150h-4.688V46.752
	c0-13.143-10.756-24.147-23.895-23.896c-12.733,0.244-22.98,10.642-22.98,23.434V150h-4.688V23.9
	c0-13.143-10.756-24.147-23.895-23.896c-12.733,0.244-22.98,10.642-22.98,23.434V150h-4.688V47.338
	c0-13.143-10.755-24.147-23.895-23.896c-12.733,0.244-22.98,10.642-22.98,23.434v138.276l-18.544-25.499
	c-7.613-10.469-22.271-12.784-32.74-5.17c-10.468,7.613-12.782,22.271-5.169,32.74l73.594,101.194
	c5.292,7.277,13.747,11.583,22.746,11.583H235.35c13.051,0,24.388-8.979,27.377-21.684l15.532-66.012
	c1.987-8.444,2.991-17.091,2.991-25.766V98.438C281.25,85.646,271.003,75.248,258.27,75.004z"/>
</svg>
