<svg xmlns="http://www.w3.org/2000/svg" viewBox="0 0 1338 315"><defs><style>.cls-1{opacity:0.48;}.cls-2{fill:#fff;}</style></defs><title>touchTitleBG</title><g id="레이어_2" data-name="레이어 2"><g id="레이어_1-2" data-name="레이어 1"><path class="cls-1" d="M157.5,305a147.5,147.5,0,0,1,0-295h1023a147.5,147.5,0,0,1,0,295Z"/><path class="cls-2" d="M1180.5,20a137.5,137.5,0,0,1,0,275H157.5a137.5,137.5,0,0,1,0-275h1023m0-20H157.5C70.9,0,0,70.9,0,157.5H0C0,244.1,70.9,315,157.5,315h1023c86.6,0,157.5-70.9,157.5-157.5h0C1338,70.9,1267.1,0,1180.5,0Z"/></g></g></svg>