<?xml version="1.0" encoding="utf-8"?>
<!-- Generator: Adobe Illustrator 27.9.0, SVG Export Plug-In . SVG Version: 6.00 Build 0)  -->
<svg version="1.1" id="레이어_1" xmlns="http://www.w3.org/2000/svg" xmlns:xlink="http://www.w3.org/1999/xlink" x="0px"
	 y="0px" viewBox="0 0 60.3 103.9" style="enable-background:new 0 0 60.3 103.9;" xml:space="preserve">
<style type="text/css">
	.st0{fill:#FFFFFF;}
	.st1{fill:none;}
</style>
<g>
	<path class="st1" d="M55.4,49.4c0.4,0,0.7-0.3,0.7-0.7l1.9-38c0-0.4-0.3-0.7-0.7-0.7L33,8.8l4.3,39.7L55.4,49.4z"/>
	<path class="st1" d="M53.4,90.8c0.4,0,0.7-0.3,0.7-0.7l1.9-38c0-0.4-0.3-0.7-0.7-0.7l-17.8-0.9l4.3,39.7L53.4,90.8z"/>
	<path class="st0" d="M59.6,7.9L32.8,6.6L33,8.8L57.4,10c0.4,0,0.7,0.4,0.7,0.7l-1.9,38c0,0.4-0.4,0.7-0.7,0.7l-18.1-0.9l0.2,2
		l17.8,0.9c0.4,0,0.7,0.4,0.7,0.7l-1.9,38c0,0.4-0.4,0.7-0.7,0.7l-11.5-0.6l0.5,4.5c0,0.4-0.2,0.7-0.6,0.8l-18.3,2l-0.2,4.1
		c0,0.4,0.3,0.7,0.7,0.7l30.9,1.6c0.4,0,0.7-0.3,0.7-0.7l4.8-94.6C60.3,8.3,60,8,59.6,7.9z"/>
	<path class="st0" d="M41.9,90.3l-4.3-39.7l-0.2-2L33,8.8l-0.2-2.2l-0.6-6c0-0.4-0.4-0.7-0.8-0.6L0.6,3.3C0.2,3.4,0,3.7,0,4.1
		l10.2,94.1c0,0.4,0.4,0.7,0.8,0.6l12.4-1.3l18.3-2c0.4,0,0.7-0.4,0.6-0.8L41.9,90.3z M6.4,43.9L2.3,6.1c0-0.4,0.2-0.7,0.6-0.8
		l26.7-2.9c0.4,0,0.7,0.2,0.8,0.6l0.4,3.5L31,8.7l3.5,32.2c0,0.4-0.2,0.7-0.6,0.8l-5.6,0.6l-2.1,0.2l-19,2.1
		C6.8,44.6,6.4,44.3,6.4,43.9z M11.6,85.7c-0.4,0-0.7-0.2-0.8-0.6L6.7,47.3c0-0.4,0.2-0.7,0.6-0.8l18.7-2l2.1-0.2l5.9-0.6
		c0.4,0,0.7,0.2,0.8,0.6l0.5,4.2l0.2,2l3.4,31.6c0,0.4-0.2,0.7-0.6,0.8l-12.2,1.3l-2.1,0.2L11.6,85.7z"/>
</g>
</svg>
