<?xml version="1.0" encoding="utf-8"?>
<!-- Generator: Adobe Illustrator 27.9.0, SVG Export Plug-In . SVG Version: 6.00 Build 0)  -->
<svg version="1.1" id="레이어_1" xmlns="http://www.w3.org/2000/svg" xmlns:xlink="http://www.w3.org/1999/xlink" x="0px"
	 y="0px" viewBox="0 0 73.3 75.8" style="enable-background:new 0 0 73.3 75.8;" xml:space="preserve">
<style type="text/css">
	.st0{fill:#FFFFFF;}
	.st1{fill:none;}
</style>
<g>
	<path class="st0" d="M33.3,0.1L2.1,8.3c-1.5,0.4-2.4,2-2,3.5l13.8,52.4c0.4,1.5,2,2.4,3.5,2L48.6,58c1.5-0.4,2.4-2,2-3.5L36.8,2.1
		C36.4,0.6,34.9-0.3,33.3,0.1z M44.8,43.8c0.4,1.6-0.5,3.3-2.2,3.7l-25.1,6.6c-1.6,0.4-3.3-0.5-3.7-2.2L3.7,13.8
		c-0.4-1.6,0.5-3.3,2.2-3.7L31,3.4C32.6,3,34.3,4,34.7,5.6L44.8,43.8z"/>
	<g>
		<path class="st0" d="M71,16.7l-30.3-5.3l0.7,2.8c0.1,0,0.3,0,0.4,0l25.6,4.4c1.7,0.3,2.8,1.9,2.5,3.5l-6.7,38.9
			c-0.3,1.7-1.9,2.8-3.5,2.5l-16.6-2.9l-16.1,4.3L26.6,67c-0.3,1.6,0.8,3,2.3,3.3l31.8,5.5c1.6,0.3,3-0.8,3.3-2.3l9.3-53.4
			C73.6,18.5,72.5,17,71,16.7z"/>
	</g>
</g>
</svg>
