<?xml version="1.0" encoding="utf-8"?>
<!-- Generator: Adobe Illustrator 16.0.0, SVG Export Plug-In . SVG Version: 6.00 Build 0)  -->
<!DOCTYPE svg PUBLIC "-//W3C//DTD SVG 1.1//EN" "http://www.w3.org/Graphics/SVG/1.1/DTD/svg11.dtd">
<svg version="1.1" id="Layer_1" xmlns="http://www.w3.org/2000/svg" xmlns:xlink="http://www.w3.org/1999/xlink" x="0px" y="0px"
	 width="55px" height="55px" viewBox="0 0 55 55" enable-background="new 0 0 55 55" xml:space="preserve">
<g>
	
		<image overflow="visible" opacity="0.5" enable-background="new    " width="68" height="68" xlink:href="B9121CB.png"  transform="matrix(1 0 0 1 -6.5 -6.5)">
	</image>
	<g>
		<path fill="#FFFFFF" d="M22.5-2.501c13.811,0,25,11.19,25,25c0,13.812-11.189,25.001-25,25.001c-13.81,0-25-11.189-25-25.001
			C-2.5,8.689,8.69-2.501,22.5-2.501z M33.98,20.784L20.321,7.125c-0.946-0.947-2.479-0.947-3.417,0l-1.715,1.713
			c-0.945,0.949-0.945,2.48,0,3.418l10.243,10.242L15.191,32.74c-0.947,0.947-0.947,2.48,0,3.418l1.713,1.713
			c0.948,0.947,2.479,0.947,3.419,0l13.657-13.66C34.93,23.265,34.93,21.733,33.98,20.784z"/>
	</g>
</g>
</svg>
