<?xml version="1.0" encoding="utf-8"?>
<!-- Generator: Adobe Illustrator 16.0.0, SVG Export Plug-In . SVG Version: 6.00 Build 0)  -->
<!DOCTYPE svg PUBLIC "-//W3C//DTD SVG 1.1//EN" "http://www.w3.org/Graphics/SVG/1.1/DTD/svg11.dtd">
<svg version="1.1" id="Layer_1" xmlns="http://www.w3.org/2000/svg" xmlns:xlink="http://www.w3.org/1999/xlink" x="0px" y="0px"
	 width="100px" height="75px" viewBox="0 0 100 75" enable-background="new 0 0 100 75" xml:space="preserve">
<path fill="#FFFFFF" d="M195.31,112.502h-1.562v3.906c0,1.288-1.056,2.344-2.345,2.344h-7.813c-1.289,0-2.344-1.056-2.344-2.344
	v-3.906h-62.496v3.906c0,1.288-1.055,2.344-2.344,2.344h-7.813c-1.288,0-2.344-1.056-2.344-2.344v-3.906h-1.562
	c-2.601,0-4.689,2.09-4.689,4.688v65.621c0,2.6,2.09,4.688,4.689,4.688h1.562v-3.905c0-1.287,1.056-2.345,2.344-2.345h7.813
	c1.289,0,2.344,1.056,2.344,2.345v3.905h62.496v-3.905c0-1.287,1.055-2.345,2.344-2.345h7.813c1.289,0,2.345,1.056,2.345,2.345
	v3.905h1.562c2.601,0,4.689-2.09,4.689-4.688V117.19C199.997,114.592,197.907,112.502,195.31,112.502z M118.752,172.655
	c0,1.289-1.056,2.345-2.344,2.345h-7.813c-1.289,0-2.344-1.056-2.344-2.345v-7.813c0-1.288,1.055-2.344,2.344-2.344h7.813
	c1.288,0,2.344,1.056,2.344,2.344V172.655z M118.752,153.906c0,1.288-1.056,2.344-2.344,2.344h-7.813
	c-1.289,0-2.344-1.056-2.344-2.344v-7.813c0-1.289,1.055-2.344,2.344-2.344h7.813c1.288,0,2.344,1.055,2.344,2.344V153.906z
	 M118.752,135.156c0,1.289-1.056,2.344-2.344,2.344h-7.813c-1.289,0-2.344-1.055-2.344-2.344v-7.813
	c0-1.289,1.055-2.344,2.344-2.344h7.813c1.288,0,2.344,1.055,2.344,2.344V135.156z M171.874,175.779
	c0,1.289-1.056,2.345-2.345,2.345h-39.059c-1.289,0-2.345-1.056-2.345-2.345V157.03c0-1.288,1.056-2.343,2.345-2.343h39.061
	c1.289,0,2.344,1.055,2.344,2.343L171.874,175.779L171.874,175.779z M171.874,142.968c0,1.289-1.056,2.345-2.345,2.345h-39.059
	c-1.289,0-2.345-1.056-2.345-2.345v-18.747c0-1.289,1.056-2.344,2.345-2.344h39.061c1.289,0,2.344,1.055,2.344,2.344
	L171.874,142.968L171.874,142.968z M193.748,172.655c0,1.289-1.056,2.345-2.345,2.345h-7.813c-1.289,0-2.344-1.056-2.344-2.345
	v-7.813c0-1.288,1.055-2.344,2.344-2.344h7.813c1.289,0,2.345,1.056,2.345,2.344V172.655z M193.748,153.906
	c0,1.288-1.056,2.344-2.345,2.344h-7.813c-1.289,0-2.344-1.056-2.344-2.344v-7.813c0-1.289,1.055-2.344,2.344-2.344h7.813
	c1.289,0,2.345,1.055,2.345,2.344V153.906z M193.748,135.156c0,1.289-1.056,2.344-2.345,2.344h-7.813
	c-1.289,0-2.344-1.055-2.344-2.344v-7.813c0-1.289,1.055-2.344,2.344-2.344h7.813c1.289,0,2.345,1.055,2.345,2.344V135.156z"/>
</svg>
