<svg xmlns="http://www.w3.org/2000/svg" viewBox="0 0 60 52.1"><title>filmIcon</title><g id="레이어_2" data-name="레이어 2"><g id="레이어_1-2" data-name="레이어 1"><path d="M58.8,0H1.2A1.3,1.3,0,0,0,0,1.2V50.9a1.2,1.2,0,0,0,1.2,1.2H58.8A1.2,1.2,0,0,0,60,50.9V1.2A1.3,1.3,0,0,0,58.8,0ZM15.5,46.6a1,1,0,0,1-1,1H4.5a1,1,0,0,1-1-1V36.5a.9.9,0,0,1,1-.9h10a.9.9,0,0,1,1,.9Zm0-16a1,1,0,0,1-1,1H4.5a1,1,0,0,1-1-1V20.5a.9.9,0,0,1,1-.9h10a.9.9,0,0,1,1,.9Zm0-16a1,1,0,0,1-1,1H4.5a1,1,0,0,1-1-1V4.5a.9.9,0,0,1,1-.9h10a.9.9,0,0,1,1,.9Zm40,32a1,1,0,0,1-1,1h-10a1,1,0,0,1-1-1V36.5a.9.9,0,0,1,1-.9h10a.9.9,0,0,1,1,.9Zm0-16a1,1,0,0,1-1,1h-10a1,1,0,0,1-1-1V20.5a.9.9,0,0,1,1-.9h10a.9.9,0,0,1,1,.9Zm0-16a1,1,0,0,1-1,1h-10a1,1,0,0,1-1-1V4.5a.9.9,0,0,1,1-.9h10a.9.9,0,0,1,1,.9Z"/></g></g></svg>