<svg xmlns="http://www.w3.org/2000/svg" viewBox="0 0 938.1 220.9"><defs><style>.cls-1{opacity:0.48;}.cls-2{fill:#231815;}.cls-3{fill:#fff;}</style></defs><title>자산 6</title><g id="레이어_2" data-name="레이어 2"><g id="레이어_1-2" data-name="레이어 1"><g class="cls-1"><rect class="cls-2" width="938.1" height="220.86" rx="110.4" ry="110.4"/></g><path class="cls-3" d="M827.7,20a90.8,90.8,0,0,1,90.4,90.4,90.8,90.8,0,0,1-90.4,90.5H110.4A90.3,90.3,0,0,1,46.6,46.6,89.4,89.4,0,0,1,110.4,20H827.7m0-20H110.4C49.7,0,0,49.7,0,110.4H0c0,60.8,49.7,110.5,110.4,110.5H827.7c60.7,0,110.4-49.7,110.4-110.5h0C938.1,49.7,888.4,0,827.7,0Z"/></g></g></svg>