<?xml version="1.0" encoding="utf-8"?>
<!-- Generator: Adobe Illustrator 16.0.0, SVG Export Plug-In . SVG Version: 6.00 Build 0)  -->
<!DOCTYPE svg PUBLIC "-//W3C//DTD SVG 1.1//EN" "http://www.w3.org/Graphics/SVG/1.1/DTD/svg11.dtd">
<svg version="1.1" id="Layer_1" xmlns="http://www.w3.org/2000/svg" xmlns:xlink="http://www.w3.org/1999/xlink" x="0px" y="0px"
	 width="300px" height="300px" viewBox="0 0 300 300" enable-background="new 0 0 300 300" xml:space="preserve">
<path fill="#FFFFFF" d="M215.625,0H84.375C68.848,0,56.25,12.598,56.25,28.125v243.75C56.25,287.402,68.848,300,84.375,300h131.25
	c15.527,0,28.125-12.598,28.125-28.125V28.125C243.75,12.598,231.152,0,215.625,0z M150,281.25c-10.371,0-18.75-8.379-18.75-18.75
	s8.379-18.75,18.75-18.75s18.75,8.379,18.75,18.75S160.371,281.25,150,281.25z M215.625,217.969c0,3.867-3.164,7.031-7.031,7.031
	H91.406c-3.867,0-7.031-3.164-7.031-7.031V35.156c0-3.867,3.164-7.031,7.031-7.031h117.188c3.867,0,7.031,3.164,7.031,7.031V217.969
	z"/>
</svg>
