<?xml version="1.0" encoding="utf-8"?>
<!-- Generator: Adobe Illustrator 16.0.0, SVG Export Plug-In . SVG Version: 6.00 Build 0)  -->
<!DOCTYPE svg PUBLIC "-//W3C//DTD SVG 1.1//EN" "http://www.w3.org/Graphics/SVG/1.1/DTD/svg11.dtd">
<svg version="1.1" id="Layer_1" xmlns="http://www.w3.org/2000/svg" xmlns:xlink="http://www.w3.org/1999/xlink" x="0px" y="0px"
	 width="65px" height="65px" viewBox="102.5 167.5 65 65" enable-background="new 102.5 167.5 65 65" xml:space="preserve">
<path d="M135.055,170c8.016,0.014,15.294,3.173,20.668,8.309l4.32-4.32c1.829-1.829,4.956-0.534,4.956,2.053v16.217
	c0,1.604-1.3,2.903-2.903,2.903H145.88c-2.587,0-3.882-3.127-2.053-4.956l5.051-5.05c-3.734-3.496-8.565-5.433-13.698-5.477
	c-11.177-0.097-20.599,8.949-20.502,20.497c0.092,10.955,8.973,20.147,20.322,20.147c4.975,0,9.677-1.775,13.383-5.026
	c0.573-0.504,1.44-0.473,1.979,0.066l4.798,4.798c0.59,0.59,0.561,1.551-0.058,2.109c-5.32,4.805-12.369,7.73-20.103,7.73
	c-16.568,0-30-13.432-30-30C105,183.451,118.505,169.97,135.055,170z"/>
</svg>
