<svg xmlns="http://www.w3.org/2000/svg" viewBox="0 0 60 57"><title>retakeicon</title><g id="레이어_2" data-name="레이어 2"><g id="레이어_1-2" data-name="레이어 1"><path d="M59.9,16.2,55.2,2.3A1.1,1.1,0,0,0,53.3,2L50.2,6.2A32.5,32.5,0,0,0,30.9,0C13.8,0,0,12.8,0,28.5S13.8,57,30.9,57a32.7,32.7,0,0,0,17.9-5.2.8.8,0,0,0,.2-1.2l-2.9-3.7a.8.8,0,0,0-1.1-.2,25.7,25.7,0,0,1-14.1,4.2c-13.4,0-24.2-10-24.2-22.4S17.5,6.2,30.9,6.2a25.2,25.2,0,0,1,15.4,5.1L43,15.8a1,1,0,0,0,.8,1.7H58.9A1,1,0,0,0,59.9,16.2Z"/></g></g></svg>