<?xml version="1.0" encoding="utf-8"?>
<!-- Generator: Adobe Illustrator 16.0.0, SVG Export Plug-In . SVG Version: 6.00 Build 0)  -->
<!DOCTYPE svg PUBLIC "-//W3C//DTD SVG 1.1//EN" "http://www.w3.org/Graphics/SVG/1.1/DTD/svg11.dtd">
<svg version="1.1" id="Layer_1" xmlns="http://www.w3.org/2000/svg" xmlns:xlink="http://www.w3.org/1999/xlink" x="0px" y="0px"
	 width="179.109px" height="179.109px" viewBox="0 0 179.109 179.109" enable-background="new 0 0 179.109 179.109"
	 xml:space="preserve">
<g>
	<g>
		<polygon fill="none" stroke="#FFFFFF" stroke-miterlimit="10" points="165.47,80.193 27.813,54.381 12.307,137.097 
			149.968,162.903 		"/>
		<path fill="#FFFFFF" d="M149.968,164.338c-0.088,0-0.176-0.008-0.267-0.028L12.041,138.503c-0.371-0.07-0.703-0.287-0.917-0.595
			c-0.217-0.315-0.297-0.7-0.228-1.078l15.506-82.711c0.147-0.777,0.896-1.292,1.672-1.145L165.736,78.78
			c0.374,0.07,0.703,0.287,0.916,0.602c0.218,0.315,0.298,0.7,0.228,1.071l-15.506,82.717
			C151.244,163.854,150.643,164.338,149.968,164.338z M13.979,135.949l134.84,25.281l14.979-79.896L28.957,56.054L13.979,135.949z"
			/>
	</g>
	<g>
		<g>
			<polygon fill="none" stroke="#FFFFFF" stroke-miterlimit="10" points="165.47,80.193 27.813,54.381 24.237,73.455 
				161.897,99.261 			"/>
			<path fill="#FFFFFF" d="M161.897,100.695c-0.087,0-0.175-0.007-0.266-0.027L23.971,74.861c-0.375-0.07-0.703-0.287-0.917-0.602
				c-0.217-0.308-0.297-0.7-0.228-1.071l3.576-19.069c0.147-0.777,0.896-1.292,1.672-1.145L165.736,78.78
				c0.374,0.07,0.703,0.287,0.916,0.602c0.218,0.315,0.298,0.7,0.228,1.071l-3.575,19.075
				C163.175,100.213,162.573,100.695,161.897,100.695z M25.91,72.307l134.84,25.282l3.048-16.255L28.957,56.054L25.91,72.307z"/>
		</g>
		<g>
			<path fill="#FFFFFF" d="M24.237,73.455l22.521-15.41L24.237,73.455z"/>
			<path fill="#FFFFFF" d="M24.237,74.889c-0.455,0-0.906-0.217-1.183-0.63c-0.448-0.651-0.28-1.54,0.371-1.987l22.525-15.41
				c0.651-0.448,1.543-0.28,1.991,0.375c0.444,0.651,0.28,1.543-0.375,1.991l-22.521,15.41
				C24.797,74.805,24.517,74.889,24.237,74.889z"/>
		</g>
		<g>
			<path fill="#FFFFFF" d="M43.2,77.009l22.525-15.41L43.2,77.009z"/>
			<path fill="#FFFFFF" d="M43.204,78.444c-0.458,0-0.906-0.217-1.186-0.623c-0.448-0.658-0.28-1.546,0.375-1.994l22.521-15.41
				c0.654-0.448,1.547-0.28,1.995,0.375c0.444,0.651,0.28,1.543-0.375,1.991l-22.521,15.41C43.764,78.36,43.48,78.444,43.204,78.444
				z"/>
		</g>
		<g>
			<path fill="#FFFFFF" d="M62.167,80.564l22.521-15.408L62.167,80.564z"/>
			<path fill="#FFFFFF" d="M62.17,81.999c-0.458,0-0.906-0.217-1.183-0.623c-0.448-0.658-0.28-1.546,0.371-1.994L83.88,63.973
				c0.654-0.448,1.546-0.28,1.991,0.371c0.448,0.651,0.28,1.546-0.371,1.995L62.979,81.747C62.73,81.915,62.45,81.999,62.17,81.999z
				"/>
		</g>
		<g>
			<path fill="#FFFFFF" d="M81.133,84.119l22.521-15.408L81.133,84.119z"/>
			<path fill="#FFFFFF" d="M81.133,85.553c-0.455,0-0.903-0.217-1.183-0.623c-0.448-0.658-0.28-1.547,0.375-1.995l22.521-15.408
				c0.65-0.448,1.546-0.28,1.99,0.371c0.448,0.658,0.28,1.547-0.37,1.995L81.945,85.301C81.697,85.469,81.413,85.553,81.133,85.553z
				"/>
		</g>
		<g>
			<path fill="#FFFFFF" d="M100.1,87.673l22.521-15.408L100.1,87.673z"/>
			<path fill="#FFFFFF" d="M100.104,89.108c-0.458,0-0.91-0.217-1.187-0.623c-0.447-0.651-0.279-1.547,0.375-1.995l22.521-15.408
				c0.65-0.448,1.543-0.28,1.99,0.371c0.448,0.658,0.28,1.547-0.374,1.995l-22.521,15.409
				C100.663,89.031,100.38,89.108,100.104,89.108z"/>
		</g>
		<g>
			<path fill="#FFFFFF" d="M119.066,91.229l22.521-15.409L119.066,91.229z"/>
			<path fill="#FFFFFF" d="M119.066,92.663c-0.455,0-0.906-0.218-1.183-0.623c-0.447-0.651-0.279-1.547,0.371-1.994l22.524-15.409
				c0.651-0.448,1.543-0.28,1.991,0.371c0.447,0.658,0.279,1.547-0.374,1.995l-22.521,15.409
				C119.626,92.586,119.347,92.663,119.066,92.663z"/>
		</g>
		<g>
			<path fill="#FFFFFF" d="M138.033,94.79l22.521-15.416L138.033,94.79z"/>
			<path fill="#FFFFFF" d="M138.033,96.218c-0.458,0-0.906-0.218-1.187-0.623c-0.444-0.651-0.279-1.547,0.375-1.987l22.521-15.416
				c0.654-0.448,1.546-0.28,1.994,0.378c0.444,0.651,0.279,1.54-0.375,1.987l-22.521,15.416
				C138.593,96.141,138.31,96.218,138.033,96.218z"/>
		</g>
	</g>
	<g>
		<g>
			
				<rect x="26.079" y="25.292" transform="matrix(0.9914 -0.131 0.131 0.9914 -3.7552 12.888)" fill="none" stroke="#FFFFFF" stroke-miterlimit="10" width="140.056" height="19.403"/>
			<path fill="#FFFFFF" d="M27.949,55.217c-0.707,0-1.322-0.524-1.417-1.245l-2.54-19.236c-0.052-0.378,0.049-0.759,0.283-1.06
				c0.231-0.301,0.57-0.5,0.948-0.549l138.851-18.342c0.787-0.107,1.505,0.449,1.609,1.233l2.54,19.236
				c0.053,0.376-0.049,0.757-0.28,1.06c-0.234,0.301-0.573,0.499-0.951,0.549L28.142,55.204
				C28.075,55.214,28.016,55.217,27.949,55.217z M27.022,35.78l2.163,16.394l136.013-17.966l-2.166-16.395L27.022,35.78z"/>
		</g>
		<g>
			<path fill="#FFFFFF" d="M25.413,34.547L47.07,51.148L25.413,34.547z"/>
			<path fill="#FFFFFF" d="M47.07,52.583c-0.308,0-0.612-0.098-0.875-0.294L24.538,35.684c-0.626-0.481-0.745-1.38-0.263-2.008
				c0.479-0.63,1.379-0.749,2.008-0.266l21.657,16.604c0.626,0.479,0.745,1.379,0.263,2.008
				C47.923,52.391,47.497,52.583,47.07,52.583z"/>
		</g>
		<g>
			<path fill="#FFFFFF" d="M44.544,32.021l21.657,16.602L44.544,32.021z"/>
			<path fill="#FFFFFF" d="M66.197,50.057c-0.304,0-0.609-0.098-0.871-0.297L43.669,33.158c-0.63-0.483-0.745-1.382-0.266-2.01
				c0.482-0.628,1.382-0.747,2.012-0.264l21.653,16.602c0.63,0.483,0.749,1.382,0.266,2.012
				C67.055,49.861,66.628,50.057,66.197,50.057z"/>
		</g>
		<g>
			<path fill="#FFFFFF" d="M63.671,29.493l21.657,16.603L63.671,29.493z"/>
			<path fill="#FFFFFF" d="M85.328,47.531c-0.304,0-0.612-0.098-0.871-0.297L62.8,30.632c-0.63-0.483-0.749-1.382-0.266-2.012
				c0.483-0.626,1.382-0.745,2.008-0.264L86.2,44.959c0.629,0.479,0.749,1.382,0.266,2.008
				C86.186,47.335,85.759,47.531,85.328,47.531z"/>
		</g>
		<g>
			<path fill="#FFFFFF" d="M82.802,26.965l21.657,16.605L82.802,26.965z"/>
			<path fill="#FFFFFF" d="M104.459,45.001c-0.304,0-0.612-0.094-0.871-0.293L81.931,28.103c-0.63-0.479-0.749-1.38-0.266-2.008
				c0.483-0.628,1.379-0.747,2.008-0.266l21.658,16.605c0.629,0.479,0.748,1.38,0.266,2.008
				C105.313,44.809,104.89,45.001,104.459,45.001z"/>
		</g>
		<g>
			<path fill="#FFFFFF" d="M101.934,24.439l21.657,16.603L101.934,24.439z"/>
			<path fill="#FFFFFF" d="M123.587,42.475c-0.301,0-0.608-0.096-0.871-0.295l-21.653-16.604c-0.63-0.481-0.749-1.382-0.267-2.008
				c0.479-0.629,1.379-0.749,2.009-0.266l21.657,16.601c0.63,0.483,0.748,1.382,0.266,2.01
				C124.444,42.283,124.021,42.475,123.587,42.475z"/>
		</g>
		<g>
			<path fill="#FFFFFF" d="M121.061,21.913l21.657,16.602L121.061,21.913z"/>
			<path fill="#FFFFFF" d="M142.718,39.949c-0.305,0-0.608-0.098-0.871-0.297L120.189,23.05c-0.626-0.483-0.745-1.382-0.263-2.01
				c0.479-0.628,1.379-0.747,2.009-0.266l21.657,16.603c0.626,0.483,0.745,1.382,0.263,2.008
				C143.575,39.755,143.148,39.949,142.718,39.949z"/>
		</g>
		<g>
			<path fill="#FFFFFF" d="M140.191,19.384l21.657,16.604L140.191,19.384z"/>
			<path fill="#FFFFFF" d="M161.849,37.421c-0.304,0-0.608-0.096-0.871-0.296L139.32,20.522c-0.63-0.481-0.745-1.38-0.266-2.01
				c0.483-0.628,1.382-0.747,2.012-0.266l21.653,16.605c0.63,0.481,0.749,1.38,0.267,2.008
				C162.706,37.227,162.279,37.421,161.849,37.421z"/>
		</g>
	</g>
</g>
</svg>
